<svg id="visual" viewBox="0 0 900 600" width="900" height="600" xmlns="http://www.w3.org/2000/svg" xmlns:xlink="http://www.w3.org/1999/xlink" version="1.1">
  <rect x="0" y="0" width="900" height="600" fill="#0f0e17"></rect>
  <path
    d="M 0 15 L 7.5 19.7 C 15 24.4 30 33.8 45 38.8 C 60 43.9 75 44.4 90 40.4 C 105 36.4 120 27.5 135 28 C 150 28.5 165 38.2 180 41.2 C 195 44.2 210 40.4 225 39.9 C 240 39.5 255 42.3 270 42.6 C 285 42.9 300 40.7 315 41.3 C 330 42 345 45.4 360 46 C 375 46.7 390 44.4 405 41.5 C 420 38.5 435 34.8 450 33.4 C 465 31.9 480 32.9 495 32.2 C 510 31.7 525 29.4 540 29.9 C 555 30.4 570 33.5 585 32.6 C 600 31.7 615 26.6 630 21.9 C 645 17.2 660 12.9 675 12.9 C 690 12.9 705 17.2 720 22.7 C 735 28.2 750 34.8 765 34.3 C 780 33.8 795 26.3 810 26.5 C 825 26.6 840 34.5 855 38.2 C 870 42 885 41.6 892.5 41.5 L 900 41.3 L 900 0 L 892.5 0 C 885 0 870 0 855 0 C 840 0 825 0 810 0 C 795 0 780 0 765 0 C 750 0 735 0 720 0 C 705 0 690 0 675 0 C 660 0 645 0 630 0 C 615 0 600 0 585 0 C 570 0 555 0 540 0 C 525 0 510 0 495 0 C 480 0 465 0 450 0 C 435 0 420 0 405 0 C 390 0 375 0 360 0 C 345 0 330 0 315 0 C 300 0 285 0 270 0 C 255 0 240 0 225 0 C 210 0 195 0 180 0 C 165 0 150 0 135 0 C 120 0 105 0 90 0 C 75 0 60 0 45 0 C 30 0 15 0 7.5 0 L 0 0 Z"
    fill="#403b61" stroke-linecap="round" stroke-linejoin="miter"></path>
</svg>
